<svg
  viewBox="0 0 200 200"
  xmlns="http://www.w3.org/2000/svg"
  role="img"
  aria-label="Author Software Inc."
>
  <title>Author Software Inc.</title>
  <desc>Logo for Author Software Inc. Copyright © Author Software Inc.</desc>
  <path fill="#4b5add" d="M180 200H20a19.86 19.86 0 0 1-7.784-1.572 19.902 19.902 0 0 1-6.358-4.286A19.916 19.916 0 0 1 0 180V20A19.948 19.948 0 0 1 5.858 5.859a19.913 19.913 0 0 1 6.358-4.286A19.861 19.861 0 0 1 20 0h160a19.87 19.87 0 0 1 7.785 1.573 19.904 19.904 0 0 1 6.356 4.286 19.904 19.904 0 0 1 4.286 6.356A19.87 19.87 0 0 1 200 20v160a19.916 19.916 0 0 1-5.858 14.142 19.893 19.893 0 0 1-6.356 4.286A19.87 19.87 0 0 1 180 200Z"/>
  <path fill="#fff" d="M23 197 54.091 44h2.961v93.761c-3.305 3.109-5.429 9.851-5.429 17.234 0 10.423 4.233 19 9.377 19 5.144 0 9.377-8.577 9.377-19 0-7.383-2.124-14.125-5.429-17.234V44h2.961L99 197v3H23v-3Z" transform="matrix(2.026313 0 0 1 -23.60517 3)"/>
</svg>
