<svg xmlns="http://www.w3.org/2000/svg" viewBox="0 0 1593 200" aria-label="Author Software Inc.">
    <title>Author Software Inc.</title>
    <desc>Copyright @copy; Author Software Inc.</desc>
    <path d="M337.591 44.762 292 164h20.875l10.855-29.893h49.933L384.518 164h20.875L359.8 44.762Zm-8.016 73.313L348.446 65.8h.668l18.7 52.271Zm85.838-40.414v53.774c0 23.213 10.354 34.9 31.062 34.9q16.032 0 27.054-13.527V164h19.038V77.661h-19.038v52.772a30.989 30.989 0 0 1-8.35 14.7c-3.841 3.507-7.849 5.344-12.024 5.344-6.68 0-11.356-1.67-14.362-4.843-3.006-3.34-4.342-8.35-4.342-15.364V77.661Zm124.248-27.889-19.038 7.849v20.04h-15.531v15.7h15.531v48.764c0 7.014 1.67 12.191 5.01 15.865q5.26 6.01 16.533 6.01H556.7v-15.7h-11.361a5.708 5.708 0 0 1-4.339-1.5 6.792 6.792 0 0 1-1.336-4.676V93.359h19.2v-15.7h-19.2Zm33.4-7.348V164H592.1v-48.263c0-7.348 1.67-13.193 5.177-17.869a16.254 16.254 0 0 1 14.023-7.014c6.513 0 11.356 2 14.7 6.179 2.839 3.841 4.342 9.519 4.342 16.867V164h19.038v-53.44c0-11.523-2.505-20.207-7.348-26.052-5.177-6.179-13.026-9.185-23.547-9.185a31.037 31.037 0 0 0-14.529 3.177A30.145 30.145 0 0 0 592.1 89.184v-46.76ZM709.5 75.323c-13.193 0-23.714 4.175-31.563 12.859-8.016 8.518-11.857 19.372-11.857 32.732 0 13.193 3.841 24.048 11.69 32.4 8.016 8.686 18.537 13.024 31.73 13.024 13.026 0 23.714-4.342 31.73-13.026 7.682-8.35 11.69-19.205 11.69-32.4 0-13.36-4.008-24.215-11.857-32.732-8.016-8.68-18.537-12.857-31.563-12.857Zm0 15.531c7.849 0 14.028 3.006 18.37 9.352 3.674 5.344 5.678 12.358 5.678 20.708 0 8.183-2 15.03-5.678 20.541-4.342 6.179-10.521 9.352-18.37 9.352-8.016 0-14.028-3.173-18.37-9.352q-5.511-8.016-5.511-20.541c0-8.35 1.837-15.364 5.511-20.708 4.342-6.346 10.354-9.352 18.37-9.352Zm100.868-15.531A20.654 20.654 0 0 0 796.674 80a29.4 29.4 0 0 0-8.183 10.02V77.661H769.62V164h18.871v-45.758c0-7.348 2.171-13.193 6.847-17.7a18.5 18.5 0 0 1 13.527-5.845 41.092 41.092 0 0 1 12.358 1.837v-19.04a24.227 24.227 0 0 0-10.855-2.171Zm121.075-32.9c-12.859 0-23.38 2.839-31.73 8.684-9.018 6.012-13.36 14.362-13.36 24.883s4.509 18.537 13.694 24.048c3.507 2 12.692 5.344 27.388 10.02 13.193 4.008 20.875 6.68 23.213 7.849 7.348 3.674 11.189 8.684 11.189 15.03 0 5.01-2.672 8.851-7.682 11.857-5.01 2.839-12.024 4.342-20.708 4.342-9.853 0-17.034-1.837-21.71-5.177-5.177-3.841-8.35-10.354-9.686-19.372h-19.372c.835 15.2 6.346 26.219 16.366 33.233 8.183 5.678 19.706 8.517 34.4 8.517 15.2 0 27.054-3.173 35.4-9.185 8.35-6.179 12.525-14.7 12.525-25.384 0-11.022-5.177-19.539-15.531-25.718-4.676-2.672-15.03-6.68-31.229-11.69-11.022-3.507-17.869-6.012-20.374-7.348-5.678-3.006-8.35-7.181-8.35-12.191 0-5.678 2.338-9.853 7.348-12.358 4.008-2.171 9.686-3.173 17.2-3.173 8.684 0 15.364 1.5 19.706 4.843 4.342 3.173 7.515 8.517 9.185 15.865H978.7c-1.169-13.026-6.012-22.712-14.362-28.891-7.845-5.844-18.867-8.683-32.895-8.683Zm105.043 32.9c-13.193 0-23.714 4.175-31.563 12.859-8.016 8.517-11.857 19.372-11.857 32.732 0 13.193 3.841 24.048 11.69 32.4 8.016 8.686 18.537 13.024 31.73 13.024 13.026 0 23.714-4.342 31.73-13.026 7.682-8.35 11.69-19.205 11.69-32.4 0-13.36-4.008-24.215-11.857-32.732-8.016-8.68-18.537-12.857-31.563-12.857Zm0 15.531c7.849 0 14.028 3.006 18.37 9.352 3.674 5.344 5.678 12.358 5.678 20.708 0 8.183-2 15.03-5.678 20.541-4.342 6.179-10.521 9.352-18.37 9.352-8.016 0-14.028-3.173-18.37-9.352q-5.511-8.016-5.511-20.541c0-8.35 1.837-15.364 5.511-20.708 4.342-6.346 10.354-9.352 18.37-9.352Zm94.021-46.092c-7.682 0-13.694 2-17.7 6.346-4.175 4.175-6.179 10.02-6.179 17.368v9.185h-19.2v15.531h19.2V164h19.038V93.192h22.044V77.661h-22.046v-8.684c0-2.839.5-4.843 1.837-6.179a7.593 7.593 0 0 1 5.678-2h15.7V44.766Zm56.279 5.01-19.038 7.849v20.04h-15.531v15.7h15.531v48.764c0 7.014 1.67 12.191 5.01 15.865q5.26 6.01 16.533 6.01h14.529v-15.7h-11.356a5.708 5.708 0 0 1-4.342-1.5 6.792 6.792 0 0 1-1.336-4.676V93.359h19.205v-15.7h-19.205ZM1211 77.661 1240.059 164h17.7l17.368-63.126L1292.33 164h17.7l29.058-86.339h-21.042l-17.2 63.794-17.033-63.794h-17.535l-17.034 63.794-17.2-63.794Zm178.189-2.338c-11.022 0-19.706 1.837-26.052 5.845-7.515 4.342-12.191 11.356-14.028 20.875l18.871 1.5a14.991 14.991 0 0 1 7.181-10.02c3.173-2 7.348-2.839 12.692-2.839 12.358 0 18.537 5.511 18.537 16.867v3.34l-18.871.5q-19.038.5-29.559 8.016c-7.682 5.177-11.356 12.692-11.356 22.378a22.435 22.435 0 0 0 8.016 17.7c5.18 4.515 12.192 6.853 21.21 6.853a46.858 46.858 0 0 0 19.539-3.838 33.724 33.724 0 0 0 12.358-9.853V164h17.7v-55.11q0-15.782-8.016-24.048c-6.011-6.342-15.529-9.519-28.221-9.519Zm17.2 49.265v4.342a21.075 21.075 0 0 1-7.682 16.533 28.04 28.04 0 0 1-18.537 6.346 16.467 16.467 0 0 1-10.187-3.173 8.9 8.9 0 0 1-3.841-7.515c0-10.354 7.515-15.7 22.712-16.032Zm79.826-49.265A20.654 20.654 0 0 0 1472.523 80a29.4 29.4 0 0 0-8.183 10.02V77.661h-18.871V164h18.871v-45.758c0-7.348 2.171-13.193 6.847-17.7a18.5 18.5 0 0 1 13.527-5.845 41.092 41.092 0 0 1 12.358 1.837v-19.04a24.227 24.227 0 0 0-10.855-2.171Zm58.45 0c-12.859 0-23.046 4.342-30.394 13.193-7.682 8.684-11.356 19.372-11.356 32.231 0 14.362 4.008 25.551 12.024 33.734 7.515 7.849 17.7 11.857 30.561 11.857 11.523 0 21.042-3.34 28.724-9.853a39.21 39.21 0 0 0 12.024-20.207h-19.038c-2.338 4.843-4.843 8.35-7.682 10.521-3.674 2.672-8.35 4.008-14.2 4.008-6.847 0-12.191-2.171-15.865-6.346s-5.845-10.354-6.513-18.37h64.629c0-15.531-3.507-27.722-10.354-36.406-7.508-9.685-18.363-14.362-32.558-14.362Zm.5 15.531c13.36 0 20.875 6.847 22.545 20.875h-44.422q1.753-10.271 7.014-15.531c3.677-3.674 8.52-5.344 14.866-5.344Z"/>
    <path d="M23 200h-3a19.858 19.858 0 0 1-7.784-1.572 19.889 19.889 0 0 1-6.358-4.286 19.916 19.916 0 0 1-4.286-6.355A19.9 19.9 0 0 1 0 180V20a19.893 19.893 0 0 1 1.572-7.785 19.949 19.949 0 0 1 4.286-6.356 19.913 19.913 0 0 1 6.358-4.286A19.86 19.86 0 0 1 20 0h160a19.871 19.871 0 0 1 7.785 1.573 19.892 19.892 0 0 1 6.356 4.286 19.908 19.908 0 0 1 4.286 6.356A19.871 19.871 0 0 1 200 20v160a19.878 19.878 0 0 1-1.572 7.787 19.918 19.918 0 0 1-4.286 6.355 19.883 19.883 0 0 1-6.356 4.286A19.87 19.87 0 0 1 180 200H23Z" fill="#4b5add"/>
    <path d="M177 200H23L86 47h6v93.761a19 19 0 1 0 16 0V47h6Z" fill="#fff"/>
</svg>
