<svg xmlns="http://www.w3.org/2000/svg" viewBox="0 0 823 200" aria-label="Author Software Inc.">
    <title>Author Software Inc.</title>
    <desc>Copyright @copy; Author Software Inc.</desc>
    <path d="M337.591 44.762 292 164h20.875l10.855-29.893h49.933L384.518 164h20.875L359.8 44.762Zm-8.016 73.313L348.446 65.8h.668l18.7 52.271Zm85.838-40.414v53.774c0 23.213 10.354 34.9 31.062 34.9q16.032 0 27.054-13.527V164h19.038V77.661h-19.038v52.772a30.989 30.989 0 0 1-8.35 14.7c-3.841 3.507-7.849 5.344-12.024 5.344-6.68 0-11.356-1.67-14.362-4.843-3.006-3.34-4.342-8.35-4.342-15.364v-52.6Zm124.248-27.889-19.038 7.849v20.04h-15.531v15.7h15.531v48.764c0 7.014 1.67 12.191 5.01 15.865q5.26 6.01 16.533 6.01H556.7v-15.7h-11.361a5.708 5.708 0 0 1-4.339-1.5 6.792 6.792 0 0 1-1.336-4.676V93.359h19.2v-15.7h-19.2Zm33.4-7.348V164H592.1v-48.263c0-7.348 1.67-13.193 5.177-17.869a16.254 16.254 0 0 1 14.028-7.014c6.513 0 11.356 2 14.7 6.179 2.839 3.841 4.342 9.519 4.342 16.867V164h19.033v-53.44c0-11.523-2.505-20.207-7.348-26.052-5.177-6.179-13.026-9.185-23.547-9.185a31.037 31.037 0 0 0-14.529 3.177A30.145 30.145 0 0 0 592.1 89.184v-46.76ZM709.5 75.323c-13.193 0-23.714 4.175-31.563 12.859-8.016 8.517-11.857 19.372-11.857 32.732 0 13.193 3.841 24.048 11.69 32.4 8.016 8.684 18.537 13.026 31.73 13.026 13.026 0 23.714-4.342 31.73-13.026 7.682-8.35 11.69-19.205 11.69-32.4 0-13.36-4.008-24.215-11.857-32.732-8.016-8.682-18.537-12.859-31.563-12.859Zm0 15.531c7.849 0 14.028 3.006 18.37 9.352 3.674 5.344 5.678 12.358 5.678 20.708 0 8.183-2 15.03-5.678 20.541-4.342 6.179-10.521 9.352-18.37 9.352-8.016 0-14.028-3.173-18.37-9.352q-5.511-8.016-5.511-20.541c0-8.35 1.837-15.364 5.511-20.708 4.342-6.346 10.354-9.352 18.37-9.352Zm100.868-15.531A20.654 20.654 0 0 0 796.674 80a29.4 29.4 0 0 0-8.183 10.02V77.661H769.62V164h18.871v-45.758c0-7.348 2.171-13.193 6.847-17.7a18.5 18.5 0 0 1 13.527-5.845 41.092 41.092 0 0 1 12.358 1.837v-19.04a24.227 24.227 0 0 0-10.855-2.171Z"/>
    <path d="M23 200h-3a19.858 19.858 0 0 1-7.784-1.572 19.889 19.889 0 0 1-6.358-4.286 19.916 19.916 0 0 1-4.286-6.355A19.9 19.9 0 0 1 0 180V20a19.893 19.893 0 0 1 1.572-7.785 19.949 19.949 0 0 1 4.286-6.356 19.913 19.913 0 0 1 6.358-4.286A19.86 19.86 0 0 1 20 0h160a19.871 19.871 0 0 1 7.785 1.573 19.892 19.892 0 0 1 6.356 4.286 19.908 19.908 0 0 1 4.286 6.356A19.871 19.871 0 0 1 200 20v160a19.878 19.878 0 0 1-1.572 7.787 19.918 19.918 0 0 1-4.286 6.355 19.883 19.883 0 0 1-6.356 4.286A19.87 19.87 0 0 1 180 200H23Z" fill="#4b5add"/>
    <path d="M177 200H23L86 47h6v93.761a19 19 0 1 0 16 0V47h6Z" fill="#fff"/>
</svg>
