<?xml version="1.0" encoding="UTF-8" standalone="no"?>
<!DOCTYPE svg PUBLIC "-//W3C//DTD SVG 1.1//EN" "http://www.w3.org/Graphics/SVG/1.1/DTD/svg11.dtd">
<svg width="100%" height="100%" viewBox="0 0 834 834" version="1.1" xmlns="http://www.w3.org/2000/svg" xmlns:xlink="http://www.w3.org/1999/xlink" xml:space="preserve" xmlns:serif="http://www.serif.com/" style="fill-rule:evenodd;clip-rule:evenodd;stroke-linejoin:round;stroke-miterlimit:2;">
    <g transform="matrix(4.166667,0,0,4.166667,0,0)">
        <path d="M180,200L20,200C17.326,200.005 14.678,199.471 12.216,198.428C9.839,197.425 7.679,195.969 5.858,194.142C4.031,192.321 2.576,190.163 1.572,187.787C0.53,185.323 -0.005,182.675 0,180L0,20C-0.005,17.326 0.53,14.678 1.572,12.215C2.576,9.839 4.032,7.681 5.858,5.859C7.68,4.032 9.839,2.576 12.216,1.573C14.678,0.53 17.326,-0.005 20,0L180,0C182.674,-0.005 185.322,0.53 187.785,1.573C190.161,2.576 192.32,4.032 194.141,5.859C195.968,7.68 197.424,9.839 198.427,12.215C199.47,14.678 200.005,17.326 200,20L200,180C200.005,182.675 199.471,185.324 198.428,187.787C197.424,190.163 195.969,192.321 194.142,194.142C192.321,195.969 190.163,197.425 187.786,198.428C185.323,199.471 182.675,200.005 180,200Z" style="fill:rgb(75,90,221);fill-rule:nonzero;"/>
        <path d="M177,200L23,200L86,47L92,47L92,140.761C85.303,143.87 81,150.612 81,157.995C81,168.418 89.577,176.995 100,176.995C110.423,176.995 119,168.418 119,157.995C119,150.612 114.697,143.87 108,140.761L108,47L114,47L177,200Z" style="fill:white;fill-rule:nonzero;"/>
    </g>
</svg>
