<svg viewBox="0 0 1918.08 200" xmlns="http://www.w3.org/2000/svg" role="img" aria-label="Author Software Inc.">
  <title>Author Software Inc.</title>
  <desc>Logo for Author Software Inc. Copyright © Author Software Inc.</desc>
  <path d="M337.591 44.762 292 164h20.875l10.855-29.893h49.933L384.518 164h20.875L359.8 44.762h-22.209Zm-8.016 73.313L348.446 65.8h.668l18.7 52.271-38.239.004ZM415.413 77.661v53.774c0 23.213 10.354 34.9 31.062 34.9 10.688 0 19.706-4.509 27.054-13.527V164h19.038V77.661h-19.038v52.772c-1.367 5.579-4.258 10.669-8.35 14.7-3.841 3.507-7.849 5.344-12.024 5.344-6.68 0-11.356-1.67-14.362-4.843-3.006-3.34-4.342-8.35-4.342-15.364V77.661h-19.038ZM539.661 49.772l-19.038 7.849v20.04h-15.531v15.7h15.531v48.764c0 7.014 1.67 12.191 5.01 15.865 3.507 4.007 9.018 6.01 16.533 6.01H556.7v-15.7h-11.361c-1.592.129-3.167-.415-4.339-1.5-1.007-1.34-1.483-3.006-1.336-4.676V93.359h19.2v-15.7h-19.2l-.003-27.887ZM573.061 42.424V164H592.1v-48.263c0-7.348 1.67-13.193 5.177-17.869 3.16-4.582 8.461-7.234 14.023-7.014 6.513 0 11.356 2 14.7 6.179 2.839 3.841 4.342 9.519 4.342 16.867V164h19.038v-53.44c0-11.523-2.505-20.207-7.348-26.052-5.177-6.179-13.026-9.185-23.547-9.185-5.029-.134-10.015.956-14.529 3.177-4.84 2.431-8.936 6.123-11.856 10.684v-46.76h-19.039ZM709.5 75.323c-13.193 0-23.714 4.175-31.563 12.859-8.016 8.518-11.857 19.372-11.857 32.732 0 13.193 3.841 24.048 11.69 32.4 8.016 8.686 18.537 13.024 31.73 13.024 13.026 0 23.714-4.342 31.73-13.026 7.682-8.35 11.69-19.205 11.69-32.4 0-13.36-4.008-24.215-11.857-32.732-8.016-8.68-18.537-12.857-31.563-12.857Zm0 15.531c7.849 0 14.028 3.006 18.37 9.352 3.674 5.344 5.678 12.358 5.678 20.708 0 8.183-2 15.03-5.678 20.541-4.342 6.179-10.521 9.352-18.37 9.352-8.016 0-14.028-3.173-18.37-9.352-3.674-5.344-5.511-12.191-5.511-20.541 0-8.35 1.837-15.364 5.511-20.708 4.342-6.346 10.354-9.352 18.37-9.352ZM810.368 75.323c-4.978-.143-9.844 1.518-13.694 4.677a27.968 27.968 0 0 0-8.183 10.02V77.661H769.62V164h18.871v-45.758c0-7.348 2.171-13.193 6.847-17.7 3.503-3.736 8.405-5.854 13.527-5.845 4.189-.021 8.356.598 12.358 1.837v-19.04c-3.402-1.552-7.118-2.295-10.855-2.171ZM931.443 42.423c-12.859 0-23.38 2.839-31.73 8.684-9.018 6.012-13.36 14.362-13.36 24.883 0 10.521 4.509 18.537 13.694 24.048 3.507 2 12.692 5.344 27.388 10.02 13.193 4.008 20.875 6.68 23.213 7.849 7.348 3.674 11.189 8.684 11.189 15.03 0 5.01-2.672 8.851-7.682 11.857-5.01 2.839-12.024 4.342-20.708 4.342-9.853 0-17.034-1.837-21.71-5.177-5.177-3.841-8.35-10.354-9.686-19.372h-19.372c.835 15.2 6.346 26.219 16.366 33.233 8.183 5.678 19.706 8.517 34.4 8.517 15.2 0 27.054-3.173 35.4-9.185 8.35-6.179 12.525-14.7 12.525-25.384 0-11.022-5.177-19.539-15.531-25.718-4.676-2.672-15.03-6.68-31.229-11.69-11.022-3.507-17.869-6.012-20.374-7.348-5.678-3.006-8.35-7.181-8.35-12.191 0-5.678 2.338-9.853 7.348-12.358 4.008-2.171 9.686-3.173 17.2-3.173 8.684 0 15.364 1.5 19.706 4.843 4.342 3.173 7.515 8.517 9.185 15.865H978.7c-1.169-13.026-6.012-22.712-14.362-28.891-7.845-5.844-18.867-8.683-32.895-8.683ZM1036.486 75.323c-13.193 0-23.714 4.175-31.563 12.859-8.016 8.517-11.857 19.372-11.857 32.732 0 13.193 3.841 24.048 11.69 32.4 8.016 8.686 18.537 13.024 31.73 13.024 13.026 0 23.714-4.342 31.73-13.026 7.682-8.35 11.69-19.205 11.69-32.4 0-13.36-4.008-24.215-11.857-32.732-8.016-8.68-18.537-12.857-31.563-12.857Zm0 15.531c7.849 0 14.028 3.006 18.37 9.352 3.674 5.344 5.678 12.358 5.678 20.708 0 8.183-2 15.03-5.678 20.541-4.342 6.179-10.521 9.352-18.37 9.352-8.016 0-14.028-3.173-18.37-9.352-3.674-5.344-5.511-12.191-5.511-20.541 0-8.35 1.837-15.364 5.511-20.708 4.342-6.346 10.354-9.352 18.37-9.352ZM1130.507 44.762c-7.682 0-13.694 2-17.7 6.346-4.175 4.175-6.179 10.02-6.179 17.368v9.185h-19.2v15.531h19.2V164h19.038V93.192h22.044V77.661h-22.046v-8.684c0-2.839.5-4.843 1.837-6.179 1.536-1.42 3.592-2.144 5.678-2h15.7V44.766l-18.372-.004ZM1186.786 49.772l-19.038 7.849v20.04h-15.531v15.7h15.531v48.764c0 7.014 1.67 12.191 5.01 15.865 3.507 4.007 9.018 6.01 16.533 6.01h14.529v-15.7h-11.356c-1.593.13-3.169-.414-4.342-1.5-1.007-1.34-1.483-3.006-1.336-4.676V93.359h19.205v-15.7h-19.205V49.772ZM1211 77.661 1240.059 164h17.7l17.368-63.126L1292.33 164h17.7l29.058-86.339h-21.042l-17.2 63.794-17.033-63.794h-17.535l-17.034 63.794-17.2-63.794H1211ZM1389.189 75.323c-11.022 0-19.706 1.837-26.052 5.845-7.515 4.342-12.191 11.356-14.028 20.875l18.871 1.5c.846-4.213 3.463-7.865 7.181-10.02 3.173-2 7.348-2.839 12.692-2.839 12.358 0 18.537 5.511 18.537 16.867v3.34l-18.871.5c-12.692.333-22.545 3.005-29.559 8.016-7.682 5.177-11.356 12.692-11.356 22.378-.154 6.807 2.799 13.326 8.016 17.7 5.18 4.515 12.192 6.853 21.21 6.853 6.713.135 13.376-1.174 19.539-3.838 4.841-2.259 9.077-5.636 12.358-9.853V164h17.7v-55.11c0-10.521-2.672-18.537-8.016-24.048-6.011-6.342-15.529-9.519-28.221-9.519h-.001Zm17.2 49.265v4.342c.079 6.387-2.75 12.475-7.682 16.533-5.214 4.274-11.798 6.528-18.537 6.346-3.653.102-7.238-1.014-10.187-3.173-2.46-1.698-3.905-4.527-3.841-7.515 0-10.354 7.515-15.7 22.712-16.032l17.535-.501ZM1486.215 75.323c-4.977-.143-9.842 1.519-13.692 4.677-3.438 2.691-6.233 6.114-8.183 10.02V77.661h-18.871V164h18.871v-45.758c0-7.348 2.171-13.193 6.847-17.7 3.503-3.736 8.405-5.854 13.527-5.845 4.189-.021 8.356.598 12.358 1.837v-19.04c-3.402-1.552-7.118-2.295-10.855-2.171h-.002ZM1544.665 75.323c-12.859 0-23.046 4.342-30.394 13.193-7.682 8.684-11.356 19.372-11.356 32.231 0 14.362 4.008 25.551 12.024 33.734 7.515 7.849 17.7 11.857 30.561 11.857 11.523 0 21.042-3.34 28.724-9.853 5.98-5.346 10.178-12.401 12.024-20.207h-19.038c-2.338 4.843-4.843 8.35-7.682 10.521-3.674 2.672-8.35 4.008-14.2 4.008-6.847 0-12.191-2.171-15.865-6.346-3.674-4.175-5.845-10.354-6.513-18.37h64.629c0-15.531-3.507-27.722-10.354-36.406-7.508-9.685-18.363-14.362-32.558-14.362h-.002Zm.5 15.531c13.36 0 20.875 6.847 22.545 20.875h-44.422c1.169-6.847 3.507-12.024 7.014-15.531 3.677-3.674 8.52-5.344 14.866-5.344h-.003ZM1659.9 44.762V164h19.539V44.762H1659.9ZM1745.738 75.323c-4.917-.08-9.784 1.009-14.198 3.177-4.397 2.216-8.27 5.348-11.356 9.185v-10.02h-19.038V164h19.038v-51.937c.668-6.847 3.006-12.191 7.014-15.865 3.291-3.241 7.739-5.044 12.358-5.01 13.026 0 19.539 7.014 19.539 21.209V164h19.038v-53.273c0-23.714-10.855-35.404-32.398-35.404h.003ZM1836.92 75.323c-13.527 0-24.048 4.509-31.563 13.527-7.014 8.183-10.521 18.871-10.521 31.9 0 13.36 3.507 24.215 10.688 32.565 7.348 8.684 17.702 13.026 31.062 13.026 11.189 0 20.207-2.839 26.887-8.35 6.847-5.678 11.356-14.362 13.36-26.052h-18.871c-1.5 12.525-8.517 18.871-21.209 18.871-7.348 0-12.859-2.672-16.533-7.849-4.008-5.344-5.845-12.859-5.845-22.378 0-9.352 2-16.7 6.012-21.877 4.008-5.344 9.519-7.849 16.533-7.849 5.678 0 10.354 1.336 13.861 4.008 3.34 2.672 5.678 6.68 6.847 12.191h18.872c-1.67-10.855-6.012-18.871-12.859-24.215-6.684-5.013-15.535-7.518-26.724-7.518h.003ZM1904.72 138.783c-3.48-.159-6.854 1.252-9.185 3.841-2.568 2.416-3.969 5.829-3.841 9.352-.096 3.518 1.3 6.917 3.841 9.352 2.44 2.412 5.754 3.737 9.184 3.672 3.469.003 6.813-1.311 9.352-3.674 2.476-2.479 3.86-5.848 3.841-9.352.051-3.51-1.338-6.891-3.841-9.352-2.435-2.54-5.834-3.936-9.352-3.839h.001Z"/>
  <path fill="#4b5add" d="M180 200H20a19.86 19.86 0 0 1-7.784-1.572 19.902 19.902 0 0 1-6.358-4.286A19.916 19.916 0 0 1 0 180V20A19.948 19.948 0 0 1 5.858 5.859a19.913 19.913 0 0 1 6.358-4.286A19.861 19.861 0 0 1 20 0h160a19.87 19.87 0 0 1 7.785 1.573 19.904 19.904 0 0 1 6.356 4.286 19.904 19.904 0 0 1 4.286 6.356A19.87 19.87 0 0 1 200 20v160a19.916 19.916 0 0 1-5.858 14.142 19.893 19.893 0 0 1-6.356 4.286A19.87 19.87 0 0 1 180 200Z"/>
  <path fill="#fff" d="M23 197 54.091 44h2.961v93.761c-3.305 3.109-5.429 9.851-5.429 17.234 0 10.423 4.233 19 9.377 19 5.144 0 9.377-8.577 9.377-19 0-7.383-2.124-14.125-5.429-17.234V44h2.961L99 197v3H23v-3Z" transform="matrix(2.026313 0 0 1 -23.60517 3)"/>
</svg>