<svg viewBox="0 0 823.2 200" xmlns="http://www.w3.org/2000/svg" role="img" aria-label="Author Software Inc.">
  <title >Author Software Inc.</title>
  <desc >Logo for Author Software Inc. Copyright © Author Software Inc.</desc>
  <path d="M337.591 44.762 292 164h20.875l10.855-29.893h49.933L384.518 164h20.875L359.8 44.762h-22.209Zm-8.016 73.313L348.446 65.8h.668l18.7 52.271-38.239.004ZM415.413 77.661v53.774c0 23.213 10.354 34.9 31.062 34.9 10.688 0 19.706-4.509 27.054-13.527V164h19.038V77.661h-19.038v52.772c-1.367 5.579-4.258 10.669-8.35 14.7-3.841 3.507-7.849 5.344-12.024 5.344-6.68 0-11.356-1.67-14.362-4.843-3.006-3.34-4.342-8.35-4.342-15.364v-52.6l-19.038-.009ZM539.661 49.772l-19.038 7.849v20.04h-15.531v15.7h15.531v48.764c0 7.014 1.67 12.191 5.01 15.865 3.507 4.007 9.018 6.01 16.533 6.01H556.7v-15.7h-11.361c-1.592.129-3.167-.415-4.339-1.5-1.007-1.34-1.483-3.006-1.336-4.676V93.359h19.2v-15.7h-19.2l-.003-27.887ZM573.061 42.424V164H592.1v-48.263c0-7.348 1.67-13.193 5.177-17.869a16.593 16.593 0 0 1 14.028-7.014c6.513 0 11.356 2 14.7 6.179 2.839 3.841 4.342 9.519 4.342 16.867V164h19.033v-53.44c0-11.523-2.505-20.207-7.348-26.052-5.177-6.179-13.026-9.185-23.547-9.185-5.029-.134-10.015.956-14.529 3.177-4.84 2.431-8.936 6.123-11.856 10.684v-46.76h-19.039ZM709.5 75.323c-13.193 0-23.714 4.175-31.563 12.859-8.016 8.517-11.857 19.372-11.857 32.732 0 13.193 3.841 24.048 11.69 32.4 8.016 8.684 18.537 13.026 31.73 13.026 13.026 0 23.714-4.342 31.73-13.026 7.682-8.35 11.69-19.205 11.69-32.4 0-13.36-4.008-24.215-11.857-32.732-8.016-8.682-18.537-12.859-31.563-12.859Zm0 15.531c7.849 0 14.028 3.006 18.37 9.352 3.674 5.344 5.678 12.358 5.678 20.708 0 8.183-2 15.03-5.678 20.541-4.342 6.179-10.521 9.352-18.37 9.352-8.016 0-14.028-3.173-18.37-9.352-3.674-5.344-5.511-12.191-5.511-20.541 0-8.35 1.837-15.364 5.511-20.708 4.342-6.346 10.354-9.352 18.37-9.352ZM810.368 75.323c-4.978-.143-9.844 1.518-13.694 4.677a27.968 27.968 0 0 0-8.183 10.02V77.661H769.62V164h18.871v-45.758c0-7.348 2.171-13.193 6.847-17.7 3.503-3.736 8.405-5.854 13.527-5.845 4.189-.021 8.356.598 12.358 1.837v-19.04c-3.402-1.552-7.118-2.295-10.855-2.171Z"/>
  <path fill="#4b5add" d="M180 200H20a19.86 19.86 0 0 1-7.784-1.572 19.902 19.902 0 0 1-6.358-4.286A19.916 19.916 0 0 1 0 180V20A19.948 19.948 0 0 1 5.858 5.859a19.913 19.913 0 0 1 6.358-4.286A19.861 19.861 0 0 1 20 0h160a19.87 19.87 0 0 1 7.785 1.573 19.904 19.904 0 0 1 6.356 4.286 19.904 19.904 0 0 1 4.286 6.356A19.87 19.87 0 0 1 200 20v160a19.916 19.916 0 0 1-5.858 14.142 19.893 19.893 0 0 1-6.356 4.286A19.87 19.87 0 0 1 180 200Z"/>
  <path fill="#fff" d="M23 197 54.091 44h2.961v93.761c-3.305 3.109-5.429 9.851-5.429 17.234 0 10.423 4.233 19 9.377 19 5.144 0 9.377-8.577 9.377-19 0-7.383-2.124-14.125-5.429-17.234V44h2.961L99 197v3H23v-3Z" transform="matrix(2.026313 0 0 1 -23.60517 3)"/>
</svg>